<?xml version="1.0" standalone="no"?>
<!DOCTYPE svg PUBLIC "-//W3C//DTD SVG 1.1//EN" "http://www.w3.org/Graphics/SVG/1.1/DTD/svg11.dtd" >
<svg xmlns="http://www.w3.org/2000/svg">
<metadata>
Created by FontForge 20120731 at Mon Jan 30 13:49:25 2017
 By admin
</metadata>
<defs>
<font id="iconfont" horiz-adv-x="1024" >
  <font-face 
    font-family="iconfont"
    font-weight="500"
    font-stretch="normal"
    units-per-em="1024"
    panose-1="2 0 6 3 0 0 0 0 0 0"
    ascent="896"
    descent="-128"
    x-height="792"
    bbox="-45 -128 2396 1099"
    underline-thickness="0"
    underline-position="0"
    unicode-range="U+0078-E67E"
  />
<missing-glyph 
 />
    <glyph glyph-name=".notdef" 
 />
    <glyph glyph-name=".notdef" 
 />
    <glyph glyph-name=".null" horiz-adv-x="0" 
 />
    <glyph glyph-name="nonmarkingreturn" horiz-adv-x="341" 
 />
    <glyph glyph-name="x" unicode="x" horiz-adv-x="1001" 
d="M281 543q-27 -1 -53 -1h-83q-18 0 -36.5 -6t-32.5 -18.5t-23 -32t-9 -45.5v-76h912v41q0 16 -0.5 30t-0.5 18q0 13 -5 29t-17 29.5t-31.5 22.5t-49.5 9h-133v-97h-438v97zM955 310v-52q0 -23 0.5 -52t0.5 -58t-10.5 -47.5t-26 -30t-33 -16t-31.5 -4.5q-14 -1 -29.5 -0.5
t-29.5 0.5h-32l-45 128h-439l-44 -128h-29h-34q-20 0 -45 1q-25 0 -41 9.5t-25.5 23t-13.5 29.5t-4 30v167h911zM163 247q-12 0 -21 -8.5t-9 -21.5t9 -21.5t21 -8.5q13 0 22 8.5t9 21.5t-9 21.5t-22 8.5zM316 123q-8 -26 -14 -48q-5 -19 -10.5 -37t-7.5 -25t-3 -15t1 -14.5
t9.5 -10.5t21.5 -4h37h67h81h80h64h36q23 0 34 12t2 38q-5 13 -9.5 30.5t-9.5 34.5q-5 19 -11 39h-368zM336 498v228q0 11 2.5 23t10 21.5t20.5 15.5t34 6h188q31 0 51.5 -14.5t20.5 -52.5v-227h-327z" />
    <glyph glyph-name="pngjia" unicode="&#xe604;" 
d="M994 488q-41 51 -107 51h-1h-241q21 56 25 114q8 91 -26 152q-42 76 -135 90q-42 6 -71 -16q-18 -14 -29.5 -39.5t-15.5 -46.5t-9 -62q-14 -109 -39 -151q-39 -65 -139 -65h-93q-47 0 -80 -32.5t-33 -78.5v-421q0 -46 33 -78.5t80 -32.5h680q48 0 85 29q44 35 51 89
l91 382q4 15 4 31q0 48 -30 85v0zM75 -17v421q0 15 11 26t27 11h79v-495h-79v0q-16 0 -27 11t-11 26v0zM947 389l-93 -395q-5 -21 -22 -34.5t-39 -13.5v0h-526v501q96 18 142 95q16 26 26.5 60.5t14 57t9.5 61.5q6 52 11 71q6 23 14 28q3 3 14 1q56 -8 80 -51
q23 -49 17.5 -111.5t-30.5 -118.5q-13 -27 3 -51t45 -24h273q31 0 49.5 -23.5t11.5 -52.5v0z" />
    <glyph glyph-name="guimo" unicode="&#xe605;" horiz-adv-x="1365" 
d="M1273 -19q0 106 -82.5 182t-198.5 76v55q71 2 135.5 -22t109.5 -67t71.5 -101.5t26.5 -122.5h-62zM63 -17h-63q0 89 46.5 162.5t125.5 116t172 42.5v-55q-118 -6 -199.5 -83t-81.5 -183v0zM1103 -128h-70q0 96 -49.5 177t-135.5 128t-190 47t-190 -47t-135.5 -128
t-49.5 -177h-70q0 83 34.5 161t97.5 136q138 125 321 125q87 0 171 -33t149 -92q54 -60 85.5 -138.5t31.5 -158.5v0zM1000 294v55q65 0 110.5 42.5t45.5 106.5q0 59 -46 103.5t-110 44.5v55q93 0 156 -60t63 -143.5t-63 -143.5t-156 -60zM336 294q-93 0 -156 60t-63 144
q0 81 65.5 142t153.5 61v-55q-65 0 -110.5 -42.5t-45.5 -105.5q0 -60 46 -104.5t110 -44.5v-55zM664 287q-84 0 -156.5 41.5t-114 111.5t-41.5 151t41.5 151.5t114 112t156.5 41.5t156.5 -41.5t114.5 -112t42 -151.5t-40.5 -151t-112.5 -111.5t-160 -41.5v0zM664 826
q-99 0 -170.5 -70t-71.5 -165q0 -99 71 -166.5t171 -67.5q99 0 170.5 70t71.5 164.5t-71.5 164.5t-170.5 70v0z" />
    <glyph glyph-name="hanggye" unicode="&#xe606;" horiz-adv-x="1194" 
d="M996 657q40 0 68 -26t28 -63v-539q0 -36 -28 -62.5t-68 -26.5h-832q-39 0 -67.5 26.5t-28.5 62.5v539q0 37 28.5 63t67.5 26h832zM996 725h-832q-68 0 -116 -46t-48 -111v-539q0 -65 48 -111t116 -46h832q68 0 116.5 46t48.5 111v539q0 65 -48.5 111t-116.5 46zM273 94
q-14 0 -24 10t-10 24v341v0q0 14 10 24t24 10t24 -10t10 -24v0v-341q0 -14 -10 -24t-24 -10zM888 94q-14 0 -24 10t-10 24v341v0q0 14 10 24t24 10t24 -10t10 -24v0v-341q0 -14 -10 -24t-24 -10v0zM717 759q-14 0 -24 10t-10 25q0 11 -16.5 22.5t-34.5 11.5h-101
q-19 0 -36 -12t-17 -22v0q0 -14 -10 -24t-24 -10t-24 10t-10 24v0q0 42 38 72t83 30h101q44 0 81.5 -30t37.5 -72v0q0 -15 -10 -25t-24 -10z" />
    <glyph glyph-name="chengshi" unicode="&#xe607;" 
d="M498.5 896q-113.5 0 -209 -55t-150 -149.5t-54.5 -205.5q0 -71 49.5 -165.5t106.5 -158.5v0v-1v0q51 -59 196 -259q25 -30 61 -30t61 31q94 120 134 181q17 27 52 66q16 19 36 45.5t55.5 78t58.5 109t23 103.5q0 111 -56.5 205.5t-153 149.5t-210 55zM695 192
q-38 -44 -57 -74q-37 -56 -131 -176q-5 -6 -10 -6q-6 0 -9 5q-116 165 -190 251q-55 64 -104.5 150.5t-49.5 143.5q0 94 47.5 173.5t129 126t177.5 46.5t177.5 -46.5t129 -126t47.5 -173.5q0 -55 -47 -138.5t-110 -155.5v0zM498.5 707q-80.5 0 -138 -56t-57.5 -134.5
t57.5 -134.5t138 -56t137.5 56t57 134.5t-57 134.5t-137.5 56zM498 390q-53 0 -91 37t-38 89.5t38 89.5t91.5 37t91.5 -37t38 -89.5t-38 -89.5t-92 -37v0z" />
    <glyph glyph-name="Group" unicode="&#xe62a;" 
d="M704 896h-384q-65 0 -111 -46t-46 -112v-383q0 -65 46 -111.5t111 -46.5h384q65 0 111 46.5t46 111.5v383q0 66 -46 112t-111 46zM779 358q0 -32 -23 -55t-56 -23h-376v0q-33 0 -56 23t-23 55v0v377q0 33 23 56t56 23h376q33 0 56 -23t23 -56v-377zM985 526v-459
q0 -65 -46 -111t-112 -46h-630q-66 0 -112 46t-46 111v0v459h83v-455q0 -33 23 -56t55 -23h624q32 0 55 23t23 56v455h83zM327 732h370v-50h-370v50zM327 574h370v-50h-370v50zM327 416h370v-49h-370v49zM39 608h124v-82h-124v82zM861 608h124v-82h-124v82z" />
    <glyph glyph-name="lirenaogao" unicode="&#xe62b;" 
d="M816 896h-608q-62 0 -106.5 -44.5t-44.5 -107.5v0v-689q0 -63 44.5 -107.5t106.5 -44.5h608q62 0 106.5 44.5t44.5 107.5v0v689q0 63 -44.5 107.5t-106.5 44.5zM891 61q0 -31 -22 -53t-53 -22h-608q-31 0 -53 22t-22 53v677q0 31 22 53t53 22h608q31 0 53 -22t22 -53
v-677zM701 390l-24 24l23 23q5 5 5 11.5t-5 11.5t-12 5q-6 0 -11 -5l-23 -23l-25 24q-11 12 -22 1q-5 -5 -5 -11q0 -7 5 -12l24 -24l-23 -24q-5 -4 -5 -11t5 -12t12 -5t11 5l24 23l23 -24q5 -5 12 -5t11 5q5 5 5 11q0 7 -5 12v0zM604 477q7 0 11.5 4.5t4.5 11.5v2v0
q0 5 -3 9l-1 1q-3 4 -9 5q-26 20 -64 25q89 13 89 83q0 47 -34.5 79.5t-83.5 32.5t-83.5 -32.5t-34.5 -79.5q0 -59 52 -93q-41 -17 -67.5 -50t-33.5 -76v-5v-1q0 -7 5 -11.5t11.5 -4.5t11.5 4.5t5 11.5q6 46 42 78t85 34h7h8q40 -2 73 -25l7 -3h1h1v0zM514 549q-30 0 -51 20
t-21 48.5t21 49t51 20.5t51 -20.5t21 -49t-21 -48.5t-51 -20zM264 275h479v-45h-479v45zM264 110h479v-46h-479v46z" />
    <glyph glyph-name="iconfont-zhanghao" unicode="&#xe62c;" 
d="M506 857q-117 0 -199 -81.5t-82 -196.5q0 -80 43 -147t113 -101q-131 -39 -215.5 -145.5t-84.5 -241.5q0 -13 1 -16q3 -13 24 -14q10 0 16.5 3t8.5 7l2 3v17q0 97 49.5 179.5t135.5 130.5t188 48h5q11 0 25 2q106 11 178.5 90t72.5 185q0 115 -82.5 196.5t-198.5 81.5v0z
M506 348q-97 0 -165.5 68t-68.5 163.5t68.5 163t165.5 67.5t165.5 -67.5t68.5 -163t-68.5 -163.5t-165.5 -68zM930 -56q0 86 -36 163t-100 134q-11 5 -23 -1t-14 -20q-1 -11 3 -15q56 -50 87.5 -118t31.5 -143q0 -8 -1 -15q3 -15 28 -15q9 0 15 4t8 7l1 4v15z" />
    <glyph glyph-name="Group1" unicode="&#xe62e;" horiz-adv-x="1152" 
d="M1109 341h-554q-18 0 -30.5 12.5t-12.5 30.5t12.5 30.5t30.5 12.5h554q18 0 30.5 -12.5t12.5 -30.5t-12.5 -30.5t-30.5 -12.5zM1081 353l-221 161q-17 13 -17 34q0 18 12.5 30.5t30.5 12.5q13 0 24 -8l221 -161q17 -12 17 -34q0 -17 -12.5 -29.5t-29.5 -12.5q-14 0 -25 7
v0zM1073 410l-215 -169q-17 -12 -17 -33q0 -18 12.5 -30.5t30.5 -12.5q15 0 26 9l216 169q16 13 16 33q0 18 -12.5 30.5t-30.5 12.5q-14 0 -26 -9v0zM683 896h-513v0q-70 0 -120 -50t-50 -120v0v-684v0q0 -70 50 -120t120 -50v0h513q17 0 29.5 12.5t12.5 30t-12.5 30
t-29.5 12.5h-512v0q-35 0 -60 25t-26 60v684q0 35 25 60t61 25h512q17 0 29.5 12.5t12.5 30t-12.5 30t-29.5 12.5z" />
    <glyph glyph-name="Group2" unicode="&#xe62f;" horiz-adv-x="1109" 
d="M858 843q-17 12 -39 14.5t-41 -1.5t-36 -10t-26 -11l-10 -5q-3 3 -8 7t-21.5 15.5t-33.5 20.5t-42 16t-48 7q-37 0 -74.5 -16.5t-56.5 -32.5l-19 -17q-4 2 -10.5 5.5t-25.5 10.5t-36.5 10t-40 1t-39.5 -13t-17.5 -29t11 -35.5t26 -33.5t26 -26l11.5 -10q4 -3 12 -8
t34 -18.5t53 -23.5t67 -18.5t79 -8.5t79 8t69 19.5t52.5 22.5t35.5 19l12 8q3 2 7 5.5t15 14t20 21t18 24t13 25.5t0.5 23.5t-16.5 19.5zM751 726q-3 -2 -8 -6t-24 -13.5t-40 -17t-54.5 -12.5t-69.5 -4q-23 1 -44.5 3.5t-37 5.5t-30.5 8t-24.5 9t-18.5 9l-13.5 7.5t-9.5 6.5
l-5 4q-3 2 -8 6t-12.5 10.5t-13 13.5t-9.5 14t-3 13.5t8 10.5q17 7 44 4t53 -11l25 -8l3 6t10 13t18 16t28 13t39.5 6t39.5 -5.5t28 -13.5t17.5 -16t10.5 -13l3 -6q4 1 10.5 2.5t25.5 4.5t34.5 4.5t32 0.5t24.5 -6q11 -10 4.5 -23t-19.5 -25zM1081 142q1 5 3.5 14t4.5 40
t-1.5 65t-18.5 87t-42 108q-29 57 -63.5 99.5t-64 62t-55.5 31t-40 12.5l-15 1q-4 -2 -11.5 -6.5t-32.5 -15.5t-51 -19t-64.5 -15t-76.5 -7q-59 0 -116.5 16t-85.5 32l-27 15q-6 0 -16 -1t-39.5 -12t-57.5 -30.5t-64 -62.5t-65 -102q-26 -53 -41 -104.5t-18 -87.5t-2 -64
t4 -42l4 -14l-16 -28q-42 -91 44 -153q125 -89 497 -89q477 0 545 143q28 58 -15 122zM554 -40q-432 0 -466 100q-11 34 22 66q-1 6 -3 16t-3.5 42t1 64.5t15 77.5t34.5 86q25 46 55 79.5t55.5 48.5t47.5 24t35 10l12 1q9 -6 25.5 -14t67.5 -22t101.5 -14t100.5 12.5
t74 24.5l25 13q5 0 13 -1.5t33 -10t48 -24t53 -48.5t54 -77q23 -43 36 -88t15.5 -79.5t1.5 -62.5t-4 -43l-3 -15l15 -19q35 -61 -54 -99q-112 -48 -407 -48zM555 516v0q-109 0 -186 -76.5t-77 -185.5t77 -186t186 -77v0q109 0 185.5 77t76.5 186t-76.5 185.5t-185.5 76.5z
M555 49v0q-85 0 -145 60t-60 144.5t60 144.5t145 60v0q84 0 144 -60t60 -144.5t-60 -144.5t-144 -60zM558 420l-170 -170l170 -169l170 169zM464 250l94 95l94 -95l-94 -94z" />
    <glyph glyph-name="Group3" unicode="&#xe630;" 
d="M20 -87v704l292 194l12 9t33 21.5t50 27t60 20t66 7.5t63.5 -12t57 -26t44 -29.5t29.5 -24.5l11 -11l266 -184l-6 -491q0 -15 -1 -39t-10.5 -76t-25.5 -77q-33 -50 -196 -54h-21h-211l1 96h167h16t36.5 2.5t48.5 6.5t44 13t30 22q14 21 21.5 60t8.5 67l1 29l4 398
l-216 151l-8.5 8.5t-23.5 19t-36.5 24.5t-45.5 20.5t-52 10.5q-40 1 -85 -16t-70 -35l-25 -19l-236 -157v-652l-1 -1v-48h-92v41v0zM331 381l134 -235h-97v-33h115v-64h-115v-33h115v-103h58v103h116v33h-116v64h116v33h-98l134 235h-65l-116 -215l-116 215h-65z" />
    <glyph glyph-name="CombinedShape" unicode="&#xe631;" 
d="M512 896q-139 0 -257 -68.5t-186.5 -186.5t-68.5 -257t68.5 -257t186.5 -186.5t257 -68.5t257 68.5t186.5 186.5t68.5 257t-68.5 257t-186.5 186.5t-257 68.5zM512 -71v0q-93 0 -177 36t-145 97t-97 145t-36 177t36 177t97 145t145 97t177 36v0q93 0 177 -36t145 -97
t97 -145t36 -177t-36 -177t-97 -145t-145 -97t-177 -36z" />
    <glyph glyph-name="Group4" unicode="&#xe632;" 
d="M918 896h-812q-44 0 -75 -31t-31 -75v-812q0 -44 31 -75t75 -31h812v0q44 0 75 31t31 75v812q0 44 -31 75t-75 31zM1011 -22v0q0 -38 -27.5 -65.5t-65.5 -27.5v0h-812v0q-38 0 -65.5 27.5t-27.5 65.5v0v812v0q0 38 27.5 65.5t65.5 27.5v0h812v0q38 0 65.5 -27.5
t27.5 -65.5v0v-812zM319 404h386v0q11 0 18.5 -8t7.5 -19t-7.5 -18.5t-18.5 -7.5v0h-386v0q-11 0 -18.5 7.5t-7.5 18.5t7.5 19t18.5 8v0zM539 570v-385q0 -11 -8 -19t-19 -8t-19 8t-8 19v385q0 11 8 19t19 8t19 -8t8 -19z" />
    <glyph glyph-name="Group5" unicode="&#xe633;" 
d="M254 418h516q14 0 24.5 -10t10.5 -24t-10.5 -24t-24.5 -10h-516q-14 0 -24.5 10t-10.5 24t10.5 24t24.5 10zM546 642v-516q0 -14 -10 -24.5t-24 -10.5t-24 10.5t-10 24.5v516q0 14 10 24.5t24 10.5t24 -10.5t10 -24.5zM512 896q-139 0 -257 -68.5t-186.5 -186.5
t-68.5 -257t68.5 -257t186.5 -186.5t257 -68.5t257 68.5t186.5 186.5t68.5 257t-68.5 257t-186.5 186.5t-257 68.5zM512 -77q-94 0 -179 36.5t-147 98.5t-98.5 147t-36.5 179t36.5 179t98.5 147t147 98.5t179 36.5t179 -36.5t147 -98.5t98.5 -147t36.5 -179t-36.5 -179
t-98.5 -147t-147 -98.5t-179 -36.5z" />
    <glyph glyph-name="phone" unicode="&#xe634;" 
d="M221 839q37 38 85 51q45 12 106 -1l11 -3q46 -13 71 -72t15 -137q-10 -90 -57 -137q-34 -34 -74 -28q-9 -2 -13 -6q-3 -2 -2 -8v-2q6 -46 23 -109t35 -106q8 -11 13 -11l3 1q26 24 64 21q35 -3 73 -28t70 -66q49 -64 59.5 -129t-23.5 -99l-2 -1l-6 -6q-40 -43 -93 -58
q-79 -21 -163 26t-153.5 149.5t-107.5 238.5q-44 160 -26 303.5t92 216.5zM414 578q34 33 43 105q7 56 -8 100.5t-37 51.5q-3 1 -10 3q-44 11 -82 1q-34 -9 -62 -37q-63 -63 -77.5 -194t25.5 -275q33 -117 93.5 -210.5t131.5 -138.5t134 -28q39 11 69 45q2 2 5 4q2 1 3 2
q18 15 7 64t-47 95q-25 32 -53.5 52t-51.5 21q-15 1 -23 -6q-18 -19 -46 -16q-30 3 -52 37l-2 4q-20 47 -38.5 115.5t-25.5 119.5v3v2q0 28 18 46q19 19 49 21q1 1 2 1q3 0 6 -1q14 -3 29 13zM599 510.5q8 7.5 19 7.5q8 0 15 -4q13 -9 24.5 -26.5t14.5 -33.5q1 -8 1 -17
q0 -28 -16 -52q-8 -12 -22 -12q-11 0 -19 8t-8 19q0 8 5 15q9 14 6 30t-16 25q-12 8 -12 22q0 11 8 18.5zM664 573q8 8 19 8q8 0 15 -5q29 -20 49.5 -59.5t20.5 -74.5q0 -21 -8 -48t-20 -44q-8 -12 -23 -12q-11 0 -18.5 7.5t-7.5 18.5q0 9 5 16q19 28 19 62q0 24 -14 50.5
t-33 39.5q-12 8 -12 22q0 11 8 19zM716.5 666.5q7.5 7.5 18.5 7.5q9 0 15 -4q40 -28 74 -80.5t43 -99.5q4 -25 4 -51q0 -36 -14.5 -82.5t-34.5 -75.5q-8 -12 -22 -12q-11 0 -19 8t-8 19q0 8 5 15q17 24 28.5 61.5t11.5 66.5q0 21 -4 41q-7 39 -34.5 81.5t-59.5 64.5
q-11 8 -11 22q0 11 7.5 18.5z" />
    <glyph glyph-name="Shape" unicode="&#xe635;" horiz-adv-x="1144" 
d="M546 519q-30 0 -53.5 -23.5t-23.5 -54.5q0 -30 23 -53.5t54 -23.5t53.5 23t22.5 54q0 34 -22 56t-54 22zM296 519q-30 0 -53.5 -23.5t-23.5 -54.5q0 -30 23 -53.5t54 -23.5q32 0 55 23t23 54q-1 35 -23.5 56.5t-54.5 21.5zM546 896q-111 0 -212 -36t-174 -96t-116.5 -143
t-43.5 -173q0 -175 153 -312l-56 -235l296 113q109 -21 153 -21q111 0 212.5 35.5t174.5 95.5t116.5 143.5t43.5 175.5t-43.5 176t-116.5 144.5t-174.5 96.5t-212.5 36zM546 49q-76 0 -143 16h-10q-10 0 -21 -5l-204 -82l35 144q7 28 -16 51q-68 56 -104 127t-36 148
q0 107 66.5 199t182 145.5t251 53.5t250.5 -53.5t182 -145.5t67 -199.5t-67 -199.5t-182 -145.5t-251 -53.5zM796 519q-30 0 -53.5 -23.5t-23.5 -54.5q0 -30 23 -53.5t54 -23.5q32 0 55 23t23 54q-5 36 -26 57t-52 21z" />
    <glyph glyph-name="Rectangle" unicode="&#xe636;" horiz-adv-x="1920" 
d="M1810 887l-905 -905l-905 905h1810z" />
    <glyph glyph-name="Group6" unicode="&#xe637;" 
d="M512 896q-139 0 -257 -68.5t-186.5 -186.5t-68.5 -257t68.5 -257t186.5 -186.5t257 -68.5t257 68.5t186.5 186.5t68.5 257t-68.5 257t-186.5 186.5t-257 68.5zM662 263q6 -6 6 -14.5t-6 -14.5t-14.5 -6t-14.5 6l-116 116l-116 -116q-6 -6 -14.5 -6t-14.5 6t-6 14.5
t6 14.5l116 116l-116 116q-6 6 -6 14.5t6 14.5t14.5 6t14.5 -6l116 -116l116 116q6 6 14.5 6t14.5 -6t6 -14.5t-6 -14.5l-116 -116z" />
    <glyph glyph-name="Group7" unicode="&#xe638;" 
d="M896 896h-768v0q-53 0 -90.5 -37.5t-37.5 -90.5v0v-768v0q0 -53 37.5 -90.5t90.5 -37.5v0h768v0q53 0 90.5 37.5t37.5 90.5v0v768v0q0 53 -37.5 90.5t-90.5 37.5v0zM992 0q0 -40 -28 -68t-68 -28h-768q-40 0 -68 28t-28 68v768q0 40 28 68t68 28h768q40 0 68 -28t28 -68
v-768zM273 416h470q13 0 22.5 -9.5t9.5 -22.5t-9.5 -22.5t-22.5 -9.5h-470q-13 1 -22 10t-9 22t9 22t22 10v0zM540 619v-470q0 -13 -9.5 -22.5t-22.5 -9.5t-22.5 9.5t-9.5 22.5v470q1 13 10 22t22 9t22 -9t10 -22v0z" />
    <glyph glyph-name="Group8" unicode="&#xe639;" 
d="M357 581l343 -342q10 -10 10 -24t-9.5 -23.5t-23.5 -9.5t-23 10l-343 343q-10 10 -10 24t9.5 23.5t23.5 9.5t23 -11v0zM700 535l-343 -342q-9 -11 -23 -11t-23.5 9.5t-9.5 23.5t10 24l342 342q10 11 24 11t23.5 -9.5t9.5 -23.5t-10 -24v0zM504.5 896q-102.5 0 -196 -39.5
t-161 -106t-107.5 -158t-40 -193t40 -193t107.5 -158t161 -106t196 -39.5t196 39.5t161 106t107 158t39.5 193t-39.5 193t-107 158t-161 106t-196 39.5zM504.5 -59q-94.5 0 -181 36.5t-149 98t-99 146t-36.5 178t36.5 178t99 146t149 98t181 36.5t180.5 -36.5t148.5 -98
t99.5 -146t37 -178t-37 -178t-99.5 -146t-148.5 -98t-180.5 -36.5z" />
    <glyph glyph-name="beijingtiaocha" unicode="&#xe63a;" 
d="M816 896h-608q-62 0 -106.5 -44.5t-44.5 -107.5v0v-689q0 -63 44.5 -107.5t106.5 -44.5h608q62 0 106.5 44.5t44.5 107.5v0v689q0 63 -44.5 107.5t-106.5 44.5zM891 61q0 -31 -22 -53t-53 -22h-608q-31 0 -53 22t-22 53v677q0 31 22 53t53 22h608q31 0 53 -22t22 -53
v-677zM284 744h480v-47h-480v47zM284 593h480v-48h-480v48zM599 478h-15q-79 0 -134.5 -55.5t-55.5 -133.5q0 -76 51.5 -130.5t126.5 -59.5h12q78 0 133.5 55.5t55.5 134.5q0 74 -50 128t-123 60zM577 157q-52 3 -88 41t-36 90q0 55 39 94t93 39q5 0 10 -1q51 -4 86 -42
t35 -89q0 -55 -39 -94t-93 -39q-4 0 -8 1h1zM897 25l-31 -36l-172 149l31 36z" />
    <glyph glyph-name="Group9" unicode="&#xe63b;" horiz-adv-x="1072" 
d="M413 895q-12 1 -26 1q-103 0 -190.5 -50.5t-138 -138t-50.5 -190.5q0 -98 46.5 -182.5t127 -136.5t177.5 -59q14 -1 28 -1q103 0 190 51t137.5 138t50.5 190q0 98 -46.5 182.5t-127 136.5t-177.5 59h-1zM690 496q-8 -120 -95.5 -201.5t-207.5 -81.5q-127 0 -216 89
t-89 215q0 11 1 22q8 119 95.5 201t208.5 82q126 0 215 -89.5t89 -215.5q0 -11 -1 -22v1zM1045 26l-98 -108l-362 326l98 108z" />
    <glyph glyph-name="Group10" unicode="&#xe63c;" 
d="M933 754h-163q-8 7 -40 49q-37 48 -59.5 70t-44.5 22h-240q-21 0 -44.5 -21.5t-63.5 -70.5q-35 -43 -44 -49h-146q-36 0 -62 -27.5t-26 -66.5v-689q0 -40 26 -67.5t62 -27.5h845q36 0 62 27.5t26 67.5v689q0 39 -26 66.5t-62 27.5zM977 -29q0 -20 -13 -33.5t-31 -13.5
h-845q-18 0 -31 13.5t-13 33.5v689q0 19 13 33t31 14h149q14 0 28.5 13.5t46.5 51.5q60 74 74 76h240q14 -2 70 -75q29 -38 43 -52t28 -14h166q18 0 31 -14t13 -33v-689zM510.5 577q-91.5 0 -156 -69t-64.5 -166.5t64.5 -166.5t156.5 -69q53 0 100.5 26t78.5 72q4 6 4 14
q0 12 -9 19q-6 5 -13 5q-12 0 -18 -10q-25 -37 -63 -58t-80 -21q-73 0 -125 55.5t-52 133.5t52 133t124.5 55t124.5 -55t52 -133q0 -10 6.5 -17t15.5 -7t15.5 7t6.5 17q0 97 -64.5 166t-156 69z" />
    <glyph glyph-name="Shape1" unicode="&#xe63d;" 
d="M914 771l-371 120q-14 4 -30.5 4t-32.5 -5l-370 -119q-24 -8 -38.5 -28t-14.5 -45v0v-264q0 -117 52.5 -218.5t142.5 -168.5l215 -158q20 -15 45 -15t45 15l214 158q91 67 143.5 169t52.5 218v264v0q0 25 -14.5 45t-37.5 27zM902 433q0 -99 -45 -188t-124 -147l-206 -152
q-7 -5 -15 -5t-15 5l-206 152q-79 59 -124 146.5t-45 188.5v254q0 18 17 23l358 116q7 3 15 3t15 -3l358 -116q17 -5 17 -23v0v-254zM739 609h-454q-11 0 -18.5 -7.5t-7.5 -18.5t8 -24t18 -13h196v-366q0 -10 10 -17.5t21 -7.5t21.5 7.5t10.5 17.5v366h195q10 0 18 13t8 24
t-7.5 18.5t-18.5 7.5z" />
    <glyph glyph-name="Group11" unicode="&#xe63e;" 
d="M240 501v-56h-56v233v0q0 91 64 154.5t154 63.5h220q90 0 154 -64t64 -154v0v-216v17h-55h-1v178q0 74 -52.5 126.5t-126.5 52.5h-186q-74 0 -126.5 -52.5t-52.5 -126.5v-156zM471 282h82v-246h-82v246zM20 445v-368q0 -85 60 -145t145 -60v0h574v0q85 0 145 60t60 145
v368h-984zM936 186v-100v0q0 -68 -48 -116t-116 -48v0h-521v0q-68 0 -116 48t-48 116v0v297h849v-197v0z" />
    <glyph glyph-name="Group12" unicode="&#xe63f;" 
d="M597 715q13 2 21.5 9.5t8.5 17t-8.5 17t-21.5 9.5v0h-213v0h-6v0q-15 0 -26 -8t-11 -19t11 -18.5t26 -7.5h6v0h213v0zM896 118q13 1 21.5 8.5t8.5 17.5t-8.5 17.5t-21.5 8.5v1l-781 -1q-13 -1 -21.5 -8.5t-8.5 -17.5t8.5 -17.5t21.5 -8.5v-1zM469 34q0 -21 15 -36
t36.5 -15t36.5 15t15 36v0q0 21 -15 36t-36.5 15t-36.5 -15t-15 -36v0zM896 896h-768q-53 0 -90.5 -37.5t-37.5 -90.5v-768q0 -53 37.5 -90.5t90.5 -37.5h768q53 0 90.5 37.5t37.5 90.5v768q0 53 -37.5 90.5t-90.5 37.5zM961 26q0 -35 -25 -60t-60 -25h-727q-36 0 -61 25
t-25 60v0v720q0 35 25 60t61 25h727q35 0 60 -25t25 -60v0v-720z" />
    <glyph glyph-name="Group13" unicode="&#xe640;" 
d="M512 896q-139 0 -257 -68.5t-186.5 -186.5t-68.5 -257t68.5 -257t186.5 -186.5t257 -68.5t257 68.5t186.5 186.5t68.5 257t-68.5 257t-186.5 186.5t-257 68.5zM512 -20q-110 0 -203 54t-147 147t-54 203t54 203t147 147t203 54t203 -54t147 -147t54 -203t-54 -203
t-147 -147t-203 -54zM450 703l19 -441h68l20 441h-107zM503 211q-27 0 -44 -17q-19 -17 -19 -44t19 -44q18 -18 44 -18t46 17q18 18 18 45t-18 44t-46 17z" />
    <glyph glyph-name="Group14" unicode="&#xe641;" 
d="M512 896q-139 0 -257 -68.5t-186.5 -186.5t-68.5 -257t68.5 -257t186.5 -186.5t257 -68.5t257 68.5t186.5 186.5t68.5 257t-68.5 257t-186.5 186.5t-257 68.5zM512 43q-93 0 -171.5 45.5t-124 124t-45.5 171.5t45.5 171.5t124 124t171.5 45.5t171.5 -45.5t124 -124
t45.5 -171.5t-45.5 -171.5t-124 -124t-171.5 -45.5zM358 384v0q0 -64 45 -109t109 -45t109 45t45 109v0q0 64 -45 109t-109 45t-109 -45t-45 -109z" />
    <glyph glyph-name="Group15" unicode="&#xe642;" 
d="M279 574q-14 11 -32 11q-21 0 -35 -14q-13 -11 -13 -28q0 -20 16 -32q70 -57 70 -141.5t-70 -141.5q-16 -12 -16 -32q0 -16 12 -28q15 -14 36 -14q17 0 31 11q49 39 75 92.5t26.5 112t-26 112t-74.5 92.5zM458 714q-14 13 -33.5 13t-33.5 -13q-14 -12 -14 -30t14 -30
q63 -57 97 -130.5t34 -154t-34 -154t-97 -130.5q-14 -12 -14 -30q0 -17 14 -30q14 -12 33 -12t34 13q77 69 117.5 157.5t40.5 186t-40.5 186.5t-117.5 158zM636 855q-14 13 -34 13q-19 0 -33 -12t-14 -31q0 -18 13 -29q92 -86 141.5 -196t49.5 -230t-49.5 -230t-141.5 -196
q-13 -12 -14 -30q1 -18 15 -30t33 -12t34 13q105 98 161 223.5t56 261.5t-56 261t-161 224z" />
    <glyph glyph-name="CombinedShape1" unicode="&#xe643;" horiz-adv-x="1152" 
d="M771 896h-430q-93 0 -171.5 -45.5t-124 -124t-45.5 -171.5v-169q0 -92 45.5 -170.5t124.5 -124.5t171 -46h94l146 -173l146 173h43q93 0 171.5 46t124.5 124.5t46 170.5v169q0 92 -46 171t-124.5 124.5t-170.5 45.5zM1042 429q0 -92 -45 -165t-122.5 -109t-169.5 -25
l-127 -151l-128 151l-42 -4q-92 -11 -170 26t-123 110.5t-45 166.5v61q0 93 45.5 171.5t124 124.5t171.5 46h290v0q93 0 171.5 -45.5t124 -124.5t45.5 -171v-1v-61v0z" />
    <glyph glyph-name="iconfont-zhanghao1" unicode="&#xe644;" 
d="M499 896q-124 0 -212 -88t-88 -212q0 -87 45.5 -159t119.5 -110q-139 -42 -229 -158t-90 -262q0 -14 1 -17q4 -14 26 -15q7 0 12 1t8 3.5t5 4.5t3 4l1 1q-1 6 -1 18q0 105 53.5 194.5t145.5 141.5t200 52h6q13 0 27 2q114 13 191 98t77 201v0q0 124 -88 212t-213 88v0z
M499 345h-3q-104 0 -177 73.5t-73 177t73 177t177 73.5h4q102 -2 174 -75t72 -175.5t-72 -175.5t-174 -75h-1zM953 -93q0 94 -38.5 177.5t-107.5 144.5q-11 5 -24 -1t-15 -22q-1 -11 4 -16q59 -54 92.5 -127.5t33.5 -155.5v-16q0 -2 1.5 -4.5t8.5 -7t19 -4.5q10 0 16.5 4
t7.5 8l2 4v16z" />
    <glyph glyph-name="Shape2" unicode="&#xe645;" 
d="M868 293v-48q-2 -6 -2 -7q-14 -72 -15 -75q-32 -106 -120 -181q-69 -59 -150 -79q-2 0 -57 -10h-47q-6 2 -7 2q-85 5 -158 47q-54 27 -96 75.5t-62 115.5q0 2 -12 60v46q5 31 5 33q12 67 59 132q5 6 36 48t46 64q44 67 33 139q-1 5 -2.5 15.5t-1.5 14.5l1 0.5t2 0.5
q78 -82 63 -231l5 6q83 112 58 238q-17 87 -73 148q-8 8 -17 16t-21 18l-18 15h19q1 0 2 -1q2 -1 3 -1q47 -4 97 -28q99 -48 174 -146q112 -144 125 -305q1 -13 1 -28q0 -53 -15 -103q-1 -6 -3.5 -13t-6 -16.5t-5.5 -15.5q42 18 62 59q47 64 33 176q5 -6 5 -7
q38 -60 51 -122zM494 377l-3 -2q-3 -48 -4 -52q-4 -43 -21 -76q-19 -36 -68 -62q-49 -25 -52 -73q-4 -57 37 -89q38 -28 94 -26q87 3 110 81q15 51 2 117q-17 87 -63 148q-1 1 -32 34z" />
    <glyph glyph-name="Group16" unicode="&#xe646;" horiz-adv-x="1170" 
d="M961 -107h-752q-86 0 -147.5 61t-61.5 148v584q0 87 61.5 148t147.5 61h752q86 0 147.5 -61t61.5 -148v-584q0 -87 -61.5 -148t-147.5 -61zM209 811q-52 0 -88.5 -36.5t-36.5 -88.5v-584q0 -52 36.5 -89t88.5 -37h752q52 0 88.5 37t36.5 89v584q0 52 -36.5 88.5
t-88.5 36.5h-752zM585 238l-544 544l59 59l485 -485l485 485l59 -59z" />
    <glyph glyph-name="Group17" unicode="&#xe647;" 
d="M965 730l-799 -798q-22 -22 -53 -22t-53 22t-22 53t21 53l799 799q22 22 54 22q31 0 53 -22t22 -53q0 -32 -22 -54v0zM965 -69q-22 -22 -53.5 -22t-53.5 22l-798 799q-23 22 -23 53t22.5 53t53.5 22t53 -22l799 -798q22 -22 22 -53t-22 -54v0z" />
    <glyph glyph-name="Shape3" unicode="&#xe648;" horiz-adv-x="1102" 
d="M1091 43l-468 812q-24 41 -71.5 41t-71.5 -41l-469 -812q-11 -19 -11 -41q0 -35 24.5 -59t58.5 -24v0h937q48 0 71.5 41.5t-0.5 82.5zM482 620q0 28 20.5 48.5t49 20.5t49 -20.5t20.5 -48.5v-288q0 -29 -20.5 -49.5t-49.5 -20.5t-49 20.5t-20 49.5v288zM551 56v0
q-29 0 -49.5 20.5t-20.5 49.5t20.5 50t49.5 21v0q30 0 50.5 -21t20.5 -50t-20.5 -49.5t-50.5 -20.5z" />
    <glyph glyph-name="Shape4" unicode="&#xe649;" 
d="M323 78v0q13 0 22 9t9 22v0v346v0q0 13 -9 22.5t-22 9.5t-22.5 -9.5t-9.5 -22.5v0v-346q0 -13 9.5 -22t22.5 -9zM511 78h1q13 0 22 9t9 22v0v346q0 13 -9 22.5t-22.5 9.5t-22.5 -9.5t-9 -22.5v-346v0q0 -13 9 -22t22 -9v0zM700 78v0q13 0 22.5 9t9.5 22v0v346
q0 13 -9.5 22.5t-22.5 9.5t-22 -9.5t-9 -22.5v-346q0 -13 9 -22t22 -9zM858 802h-131q-11 41 -44.5 67.5t-76.5 26.5h-189q-43 0 -76.5 -26.5t-44.5 -67.5h-131q-52 0 -89 -37t-37 -89v-32h32v-31h63v-598q0 -52 37 -89t89 -37h503q52 0 89 37t37 89v598h63v31h32v32
q-1 52 -37.5 89t-88.5 37zM417 833h189q36 0 54 -31h-297q18 31 54 31v0zM826 15q0 -26 -18.5 -44.5t-44.5 -18.5h-503q-27 0 -47.5 18.5t-20.5 44.5l5 598h629v-598zM102 676q0 26 18.5 44.5t44.5 18.5h693q26 0 44.5 -18.5t18.5 -44.5h-819z" />
    <glyph glyph-name="Group18" unicode="&#xe64a;" 
d="M384 128q-160 0 -272 112t-112 272t112 272t272 112t272 -112t112 -272t-112 -272t-272 -112zM384 811q-125 0 -212 -87t-87 -212t87 -212t212 -87t212 87t87 212t-87 212t-212 87zM981 -128q-17 0 -30 13l-354 354q-12 13 -12 30t12.5 29.5t29.5 12.5t30 -12l354 -354
q13 -13 13 -30t-13 -30t-30 -13zM512 469h-256q-19 0 -31 12t-12 31t12 31t31 12h256q19 0 31 -12t12 -31t-12 -31t-31 -12zM384 341q-19 0 -31 12t-12 31v256q0 19 12 31t31 12t31 -12t12 -31v-256q0 -19 -12 -31t-31 -12z" />
    <glyph glyph-name="Group19" unicode="&#xe64b;" horiz-adv-x="1445" 
d="M723 797q201 0 366.5 -107t248.5 -282h107q-88 217 -284 352t-438 135t-438 -135t-284 -352h106q84 175 249.5 282t366.5 107zM723 18q-201 0 -366.5 107t-249.5 283h-106q88 -218 284 -352.5t438 -134.5t438 134.5t284 352.5h-107q-83 -176 -248.5 -283t-366.5 -107z
M463 408v0q0 -108 76 -184t183.5 -76t184 76t76.5 184v0q0 107 -76.5 183.5t-184 76.5t-183.5 -76.5t-76 -183.5zM885 408q0 -67 -47.5 -115t-114.5 -48t-115 48t-48 115v0q0 67 48 114.5t115 47.5t114.5 -47.5t47.5 -114.5z" />
    <glyph glyph-name="Shape5" unicode="&#xe64c;" horiz-adv-x="2235" 
d="M2207 879q-20 17 -47 17q-35 0 -57 -27q-110 -125 -261 -189q28 -7 -37 -48q-108 -67 -278 -118q-13 -4 -25 -7q43 6 40 2q-9 -12 -125 -33q-152 -27 -300 -27q-397 0 -733 212q-269 170 -429 438q96 -134 99 -134q1 0 -30 65q-11 24 -20 44q98 -162 87 -175
q-2 -3 -17 -3q-30 0 -52 -22t-22 -52q0 -28 17 -48q27 -32 76 -77q258 -238 596 -332q-301 126 -279 110q6 -4 31 -17q-20 -29 -52 -56q-25 -21 -53 -36q-67 -41 -147 -54q34 8 44 10l1 -1q-12 -5 -43 -12q-50 -12 -105 -13q5 0 5.5 -3.5t-2 -10.5t-6 -15t-6.5 -19.5
t-3 -21.5q0 -31 22 -53t53 -22q4 0 8 1q167 21 302 115h-1q15 11 27 21q62 52 94 110q237 -93 506 -97q-58 -38 -125.5 -94.5t-88.5 -71.5l13 7q-29 -23 -92 -50l-4 -2h1l1 1h1l1 1h1l1 1l1 1h1l1 1h2l1 1h1l33 19q-2 -1 -10 -4q-30 -10 -50 -15q10 1 7 -1q-11 -8 -77 -15
q-12 -2 -23 -2h12q-11 -1 -28 -1h5.5h2h0.5q-31 0 -53 -22t-22 -52.5t22 -52.5t52 -22q129 0 254 69q47 26 86 60q31 27 59 59q76 89 109 185q298 12 565 134q-4 -55 -39 -151q-28 -78 -108 -139q-97 -78 -220 -97q14 3 23 3.5t13 -1.5t5 -8t0 -11t-2 -14.5t-1 -16.5
q0 -30 21.5 -52t52.5 -22q14 0 27 5q87 29 173 96q113 88 156 206q52 141 42 277q318 188 508 495q-197 -248 -188 -240q2 1 9 9q17 20 17 47q0 35 -27 58v0z" />
    <glyph glyph-name="Group20" unicode="&#xe64d;" horiz-adv-x="1293" 
d="M1078 896h-863q-89 0 -152 -63t-63 -152v-1v-592v-1q0 -89 63 -152t152 -63h863q90 0 152.5 63t62.5 152v1v592v1q0 89 -62.5 152t-152.5 63zM1186 87q0 -44 -31.5 -75.5t-76.5 -31.5h-863q-44 0 -75.5 31.5t-31.5 75.5v594q0 44 31.5 75.5t75.5 31.5h863
q45 0 76.5 -31.5t31.5 -75.5v-594zM999 789l-335 -398l-357 398h-104l468 -526l425 526h-97z" />
    <glyph glyph-name="Group21" unicode="&#xe64e;" 
d="M854 896h-684v0q-70 0 -120 -50t-50 -120v0v-684v0q0 -70 50 -120t120 -50v0h684v0q70 0 120 50t50 120v0v684v0q0 70 -50 120t-120 50v0zM939 42q0 -35 -25 -60t-60 -25h-684q-35 0 -60 25t-25 60v684q0 35 25 60t60 25h684q35 0 60 -25t25 -60v-684zM522 632
q-70 0 -119.5 -49.5t-49.5 -119t49.5 -119t119.5 -49.5t119 49.5t49 119t-49 119t-119 49.5zM522 352v0q-47 0 -79.5 32.5t-32.5 79t32.5 79t79.5 32.5v0q46 0 78.5 -32.5t32.5 -79t-32.5 -79t-78.5 -32.5zM313 70h-57q0 112 81 191.5t196 79.5t196.5 -79.5t81.5 -191.5h-57
q-6 84 -69.5 142.5t-151 58.5t-151 -58.5t-69.5 -142.5zM285 41q27 0 27 28q0 19 -8.5 50t-19 31t-19 -32t-8.5 -49q0 -12 7.5 -20t20.5 -8zM786 43q-32 0 -32 26q0 101 15 101q11 0 26 -39t15 -54q0 -13 -6 -23.5t-18 -10.5v0zM449 811h89v-93h-89v93zM449 41h89v-83h-89
v83zM939 445v-89h-86v89h86zM176 445v-89h-90v89h90z" />
    <glyph glyph-name="Group22" unicode="&#xe651;" 
d="M57 441h910q26 0 41.5 -15.5t15.5 -41.5t-15.5 -41.5t-41.5 -15.5h-910q-26 0 -41.5 15.5t-15.5 41.5t15.5 41.5t41.5 15.5zM569 839v-910q0 -26 -15.5 -41.5t-41.5 -15.5t-41.5 15.5t-15.5 41.5v910q0 26 15.5 41.5t41.5 15.5t41.5 -15.5t15.5 -41.5z" />
    <glyph glyph-name="CombinedShape2" unicode="&#xe652;" 
d="M21 -103v723l289 191q5 4 13 9.5t33 21t50 27t59.5 20t65.5 7.5t63.5 -12t56.5 -26t43.5 -29.5t30.5 -24.5l10 -10l263 -183l-4 -488q0 -16 -1 -40t-10.5 -75.5t-26.5 -76t-71 -38.5t-100 -15l-46 -2h-208v64h183q2 1 16.5 0t40.5 1.5t51 6.5t47.5 14t31.5 25
q15 22 23.5 67t9.5 65.5t1 32.5l4 425l-229 162q-4 3 -10 9t-25 20.5t-39 26.5t-49 22t-56 11t-57 -6t-53 -18t-42 -22t-29 -18l-10 -8l-251 -170v-714h-63v25h-5z" />
    <glyph glyph-name="Path1" unicode="&#xe653;" 
d="M708 469q-16 20 -166 172t-226 238q-16 16 -35 12t-34.5 -17.5t-23 -32t-1.5 -30.5q4 0 104 -104.5t198.5 -209l98.5 -104.5q-384 -419 -401 -436q-14 -15 -3.5 -37t35 -37t36.5 -2q4 3 113 120.5t215.5 233l106.5 115.5l2.5 7.5t4 19.5t1.5 28.5t-7 31.5t-18 32z" />
    <glyph glyph-name="xuanzhong" unicode="&#xe654;" 
d="M512 384zM0 384q0 -139 68.5 -257t186.5 -186.5t257 -68.5t257 68.5t186.5 186.5t68.5 257t-68.5 257t-186.5 186.5t-257 68.5t-257 -68.5t-186.5 -186.5t-68.5 -257zM238 417l160 -127l398 366l2.5 2.5t7.5 4.5t12 4.5t13.5 0t13.5 -6.5q7 -6 8 -16.5t-11 -30.5
l-415 -486q-1 -2 -3.5 -4.5t-10 -8t-15 -7t-19 3t-21.5 16.5l-179 242q-3 4 -5.5 10t-2 20t12.5 22q26 20 54 -5z" />
    <glyph glyph-name="Group23" unicode="&#xe655;" 
d="M512 384zM0 384q0 -139 68.5 -257t186.5 -186.5t257 -68.5t257 68.5t186.5 186.5t68.5 257t-68.5 257t-186.5 186.5t-257 68.5t-257 -68.5t-186.5 -186.5t-68.5 -257zM825 668l85 -81l-498 -478l-241 233l85 82l156 -151z" />
    <glyph glyph-name="xiala" unicode="&#xe67e;" 
d="M598 148q20 17 172 167t238 226q16 16 11.5 35t-17.5 34.5t-31.5 23t-30.5 1.5q0 -4 -105 -104t-209.5 -198.5l-104.5 -98.5q-418 384 -435 401q-15 13 -37 3t-37 -34.5t-3 -36.5q4 -4 121.5 -113t233 -215.5l115.5 -106.5q2 -1 7 -2.5t19.5 -4t28.5 -2t32 6.5t32 18z
" />
    <glyph glyph-name="dian" unicode="&#xe67d;" 
d="M512 384zM0 384q0 -139 68.5 -257t186.5 -186.5t257 -68.5t257 68.5t186.5 186.5t68.5 257t-68.5 257t-186.5 186.5t-257 68.5t-257 -68.5t-186.5 -186.5t-68.5 -257z" />
  </font>
</defs>
</svg>
